<svg width="259" height="254" viewBox="0 0 259 254" fill="none" xmlns="http://www.w3.org/2000/svg">
<g filter="url(#filter0_f_1_739)">
<path d="M163.326 96.083C173.293 106.05 173.288 122.233 163.326 132.194L134.661 160.86C128.884 166.637 119.512 166.637 113.734 160.86L88.0803 135.206L127.209 96.0772C137.176 86.1098 153.359 86.1156 163.32 96.0772L163.326 96.083Z" fill="url(#paint0_linear_1_739)"/>
</g>
<path d="M163.326 96.083C173.293 106.05 173.288 122.233 163.326 132.194L134.661 160.86C128.884 166.637 119.512 166.637 113.734 160.86L88.0803 135.206L127.209 96.0772C137.176 86.1098 153.359 86.1156 163.32 96.0772L163.326 96.083Z" fill="url(#paint1_linear_1_739)"/>
<g filter="url(#filter1_b_1_739)">
<path d="M85.0616 96.0849C95.0291 86.1175 111.212 86.1234 121.173 96.0849L160.302 135.213L134.648 160.867C128.87 166.645 119.498 166.645 113.721 160.867L85.0558 132.202C75.0884 122.235 75.0942 106.052 85.0558 96.0908L85.0616 96.0849Z" fill="url(#paint2_linear_1_739)"/>
<path d="M85.7688 96.792C95.3455 87.2153 110.895 87.2208 120.466 96.792L158.887 135.213L133.941 160.16C128.554 165.547 119.815 165.547 114.428 160.16L85.7629 131.495C76.1862 121.918 76.1917 106.369 85.7629 96.7979L85.7688 96.792Z" stroke="url(#paint3_linear_1_739)" stroke-width="2"/>
</g>
<defs>
<filter id="filter0_f_1_739" x="0.0803223" y="0.604004" width="258.719" height="252.588" filterUnits="userSpaceOnUse" color-interpolation-filters="sRGB">
<feFlood flood-opacity="0" result="BackgroundImageFix"/>
<feBlend mode="normal" in="SourceGraphic" in2="BackgroundImageFix" result="shape"/>
<feGaussianBlur stdDeviation="44" result="effect1_foregroundBlur_1_739"/>
</filter>
<filter id="filter1_b_1_739" x="59.5824" y="70.6113" width="118.719" height="112.589" filterUnits="userSpaceOnUse" color-interpolation-filters="sRGB">
<feFlood flood-opacity="0" result="BackgroundImageFix"/>
<feGaussianBlur in="BackgroundImageFix" stdDeviation="9"/>
<feComposite in2="SourceAlpha" operator="in" result="effect1_backgroundBlur_1_739"/>
<feBlend mode="normal" in="SourceGraphic" in2="effect1_backgroundBlur_1_739" result="shape"/>
</filter>
<linearGradient id="paint0_linear_1_739" x1="166.777" y1="95.469" x2="104.831" y2="152.489" gradientUnits="userSpaceOnUse">
<stop stop-color="#F26DFF"/>
<stop offset="1" stop-color="#FF027A"/>
</linearGradient>
<linearGradient id="paint1_linear_1_739" x1="166.777" y1="95.469" x2="104.831" y2="152.489" gradientUnits="userSpaceOnUse">
<stop stop-color="#F26DFF"/>
<stop offset="1" stop-color="#FF027A"/>
</linearGradient>
<linearGradient id="paint2_linear_1_739" x1="122.995" y1="166.063" x2="139.87" y2="91.3266" gradientUnits="userSpaceOnUse">
<stop stop-color="white" stop-opacity="0.2"/>
<stop offset="1" stop-color="white" stop-opacity="0.49"/>
</linearGradient>
<linearGradient id="paint3_linear_1_739" x1="74.047" y1="116.094" x2="148.497" y2="101.666" gradientUnits="userSpaceOnUse">
<stop stop-color="white"/>
<stop offset="1" stop-color="white" stop-opacity="0"/>
</linearGradient>
</defs>
</svg>
