<svg width="282" height="283" viewBox="0 0 282 283" fill="none" xmlns="http://www.w3.org/2000/svg">
<g id="chat">
<g id="Vector" filter="url(#filter0_f_1_10)">
<path d="M142.561 88.7006C170.44 89.599 192.948 112.562 193.227 140.348C193.319 150.522 190.494 160.022 185.534 168.095C184.831 169.231 184.698 170.618 185.123 171.873L189.99 186.407C191.662 191.415 186.675 196.079 181.767 194.097L166.74 188.019C165.573 187.544 164.26 187.557 163.132 188.085C156.434 191.23 148.967 193.014 141.089 193.04C112.852 193.172 89.3093 170.539 88.487 142.423C87.5984 112.311 112.334 87.7228 142.574 88.6874L142.561 88.7006Z" fill="url(#paint0_linear_1_10)"/>
</g>
<g id="Group 30">
<path id="Vector_2" d="M142.561 88.7006C170.44 89.599 192.948 112.562 193.227 140.348C193.319 150.522 190.494 160.022 185.534 168.095C184.831 169.231 184.698 170.618 185.123 171.873L189.99 186.407C191.661 191.415 186.674 196.079 181.767 194.097L166.74 188.019C165.573 187.544 164.26 187.557 163.132 188.085C156.434 191.23 148.967 193.014 141.089 193.04C112.851 193.172 89.3093 170.539 88.487 142.423C87.5983 112.311 112.334 87.7228 142.574 88.6874L142.561 88.7006Z" fill="url(#paint1_linear_1_10)"/>
<g id="Vector_3" filter="url(#filter1_b_1_10)">
<path d="M84.5191 34.0363C48.4592 35.1968 19.3586 65.078 19.0034 101.236C18.8719 114.476 22.5292 126.845 28.9492 137.328C29.8569 138.805 30.028 140.612 29.4886 142.26L23.2001 161.183C21.0294 167.698 27.4757 173.763 33.83 171.179L53.2742 163.28C54.7739 162.673 56.471 162.673 57.9445 163.372C66.601 167.46 76.2573 169.781 86.453 169.821C122.973 169.979 153.416 140.546 154.481 103.953C155.626 64.7615 123.644 32.7704 84.5323 34.0363H84.5191Z" fill="url(#paint2_linear_1_10)"/>
<path d="M20.0034 101.246L20.0034 101.246C20.3533 65.626 49.0215 36.1878 84.5352 35.0363H84.5485L84.5646 35.0358C123.098 33.7886 154.61 65.3057 153.482 103.923C152.432 139.975 122.434 168.977 86.4573 168.821L86.4569 168.821C76.412 168.782 66.8998 166.495 58.3715 162.468C56.6265 161.641 54.6375 161.65 52.8992 162.353L52.8978 162.353L33.4536 170.252L33.4532 170.253C27.8951 172.513 22.2464 167.209 24.1488 161.499L24.1491 161.499L30.4376 142.576L30.439 142.571C31.0638 140.662 30.8722 138.548 29.802 136.806C23.4772 126.478 19.8737 114.293 20.0034 101.246Z" stroke="url(#paint3_linear_1_10)" stroke-width="2"/>
</g>
</g>
</g>
<defs>
<filter id="filter0_f_1_10" x="0.463776" y="0.659912" width="280.765" height="281.904" filterUnits="userSpaceOnUse" color-interpolation-filters="sRGB">
<feFlood flood-opacity="0" result="BackgroundImageFix"/>
<feBlend mode="normal" in="SourceGraphic" in2="BackgroundImageFix" result="shape"/>
<feGaussianBlur stdDeviation="44" result="effect1_foregroundBlur_1_10"/>
</filter>
<filter id="filter1_b_1_10" x="1" y="16" width="171.511" height="173.789" filterUnits="userSpaceOnUse" color-interpolation-filters="sRGB">
<feFlood flood-opacity="0" result="BackgroundImageFix"/>
<feGaussianBlur in="BackgroundImageFix" stdDeviation="9"/>
<feComposite in2="SourceAlpha" operator="in" result="effect1_backgroundBlur_1_10"/>
<feBlend mode="normal" in="SourceGraphic" in2="effect1_backgroundBlur_1_10" result="shape"/>
</filter>
<linearGradient id="paint0_linear_1_10" x1="129.802" y1="92.2415" x2="153.213" y2="196.21" gradientUnits="userSpaceOnUse">
<stop stop-color="#0BC7FF"/>
<stop offset="1" stop-color="#DB0EFE"/>
</linearGradient>
<linearGradient id="paint1_linear_1_10" x1="129.802" y1="92.2415" x2="153.213" y2="196.21" gradientUnits="userSpaceOnUse">
<stop stop-color="#0BC7FF"/>
<stop offset="1" stop-color="#DB0EFE"/>
</linearGradient>
<linearGradient id="paint2_linear_1_10" x1="26.6504" y1="164.01" x2="148.864" y2="43.816" gradientUnits="userSpaceOnUse">
<stop stop-color="white" stop-opacity="0.2"/>
<stop offset="1" stop-color="white" stop-opacity="0.49"/>
</linearGradient>
<linearGradient id="paint3_linear_1_10" x1="28.5656" y1="44.8368" x2="143.856" y2="166.072" gradientUnits="userSpaceOnUse">
<stop stop-color="white"/>
<stop offset="1" stop-color="white" stop-opacity="0"/>
</linearGradient>
</defs>
</svg>
