<svg width="273" height="266" viewBox="0 0 273 266" fill="none" xmlns="http://www.w3.org/2000/svg">
<g filter="url(#filter0_f_1_868)">
<path d="M139.65 125.544C142.434 128.328 142.601 132.838 144.025 136.266C145.496 139.821 148.51 143.153 148.51 146.939C148.51 150.725 145.496 154.058 144.025 157.613C142.609 161.041 142.442 165.543 139.65 168.334C136.859 171.126 132.357 171.285 128.929 172.709C125.374 174.18 122.041 177.195 118.255 177.195C114.469 177.195 111.137 174.18 107.582 172.709C104.154 171.293 99.6519 171.126 96.8602 168.334C94.0765 165.551 93.9094 161.041 92.4858 157.613C91.0621 154.185 88 150.725 88 146.939C88 143.153 91.0144 139.821 92.4858 136.266C93.9015 132.838 94.0685 128.336 96.8602 125.544C99.644 122.761 104.154 122.594 107.582 121.17C111.137 119.698 114.469 116.684 118.255 116.684C122.041 116.684 125.374 119.698 128.929 121.17C132.357 122.586 136.859 122.753 139.65 125.544Z" fill="url(#paint0_linear_1_868)"/>
</g>
<g filter="url(#filter1_f_1_868)">
<path d="M184.675 106.885C184.763 109.438 182.854 111.641 182.019 113.892C181.144 116.223 181.104 119.134 179.434 120.923C177.764 122.713 174.861 122.959 172.602 123.993C170.414 124.987 168.355 127.047 165.801 127.143C163.248 127.238 161.045 125.321 158.794 124.486C156.544 123.651 153.553 123.572 151.763 121.901C149.974 120.231 149.727 117.328 148.693 115.069C147.699 112.882 145.639 110.822 145.544 108.269C145.456 105.716 147.365 103.513 148.2 101.262C149.075 98.9316 149.115 96.0206 150.785 94.2311C152.455 92.4415 155.358 92.195 157.617 91.161C159.797 90.1588 161.864 88.0989 164.41 88.0034C166.955 87.908 169.166 89.8248 171.417 90.6599C173.667 91.495 176.658 91.5746 178.448 93.2448C180.237 94.9151 180.484 97.8181 181.518 100.077C182.512 102.264 184.572 104.324 184.667 106.877L184.675 106.885Z" fill="url(#paint1_linear_1_868)"/>
</g>
<path d="M139.65 125.544C142.434 128.328 142.601 132.838 144.025 136.266C145.496 139.821 148.51 143.153 148.51 146.939C148.51 150.725 145.496 154.058 144.025 157.613C142.609 161.041 142.442 165.543 139.65 168.334C136.859 171.126 132.357 171.285 128.929 172.709C125.374 174.18 122.041 177.195 118.255 177.195C114.469 177.195 111.137 174.18 107.582 172.709C104.154 171.293 99.6519 171.126 96.8602 168.334C94.0765 165.551 93.9094 161.041 92.4858 157.613C91.0621 154.185 88 150.725 88 146.939C88 143.153 91.0144 139.821 92.4858 136.266C93.9015 132.838 94.0685 128.336 96.8602 125.544C99.644 122.761 104.154 122.594 107.582 121.17C111.137 119.698 114.469 116.684 118.255 116.684C122.041 116.684 125.374 119.698 128.929 121.17C132.357 122.586 136.859 122.753 139.65 125.544Z" fill="url(#paint2_linear_1_868)"/>
<path d="M184.675 106.885C184.763 109.438 182.854 111.641 182.019 113.892C181.144 116.223 181.104 119.134 179.434 120.923C177.764 122.713 174.861 122.959 172.602 123.993C170.415 124.987 168.355 127.047 165.802 127.143C163.248 127.238 161.045 125.321 158.794 124.486C156.544 123.651 153.553 123.572 151.764 121.901C149.974 120.231 149.727 117.328 148.693 115.069C147.699 112.882 145.639 110.822 145.544 108.269C145.456 105.716 147.365 103.513 148.2 101.262C149.075 98.9316 149.115 96.0206 150.785 94.2311C152.455 92.4415 155.359 92.195 157.617 91.161C159.797 90.1588 161.864 88.0989 164.41 88.0034C166.955 87.908 169.166 89.8248 171.417 90.6599C173.668 91.495 176.658 91.5746 178.448 93.2448C180.237 94.9151 180.484 97.8181 181.518 100.077C182.512 102.264 184.572 104.324 184.667 106.877L184.675 106.885Z" fill="url(#paint3_linear_1_868)"/>
<g filter="url(#filter2_b_1_868)">
<path d="M176.968 160.683L169.587 153.302C180.404 138.556 179.155 117.718 165.817 104.388C151.095 89.6657 127.227 89.6657 112.505 104.388C97.7828 119.11 97.7828 142.978 112.505 157.692C125.453 170.641 145.488 172.192 160.139 162.353L167.718 169.933C170.271 172.486 174.415 172.486 176.968 169.933C179.521 167.38 179.521 163.236 176.968 160.683Z" fill="url(#paint4_linear_1_868)"/>
<path d="M168.781 152.71L168.274 153.402L168.88 154.009L176.261 161.39C178.424 163.553 178.424 167.063 176.261 169.226C174.099 171.388 170.588 171.388 168.425 169.226L160.846 161.646L160.264 161.064L159.581 161.523C145.32 171.1 125.816 169.589 113.212 156.985L113.212 156.985C98.8806 142.662 98.8803 119.426 113.212 105.095C127.543 90.7633 150.779 90.7633 165.11 105.095L165.11 105.095C178.094 118.07 179.311 138.356 168.781 152.71Z" stroke="url(#paint5_linear_1_868)" stroke-width="2"/>
</g>
<defs>
<filter id="filter0_f_1_868" x="-3.05176e-05" y="28.6841" width="236.511" height="236.511" filterUnits="userSpaceOnUse" color-interpolation-filters="sRGB">
<feFlood flood-opacity="0" result="BackgroundImageFix"/>
<feBlend mode="normal" in="SourceGraphic" in2="BackgroundImageFix" result="shape"/>
<feGaussianBlur stdDeviation="44" result="effect1_foregroundBlur_1_868"/>
</filter>
<filter id="filter1_f_1_868" x="57.5409" y="0" width="215.137" height="215.146" filterUnits="userSpaceOnUse" color-interpolation-filters="sRGB">
<feFlood flood-opacity="0" result="BackgroundImageFix"/>
<feBlend mode="normal" in="SourceGraphic" in2="BackgroundImageFix" result="shape"/>
<feGaussianBlur stdDeviation="44" result="effect1_foregroundBlur_1_868"/>
</filter>
<filter id="filter2_b_1_868" x="83.4633" y="75.3462" width="113.42" height="114.501" filterUnits="userSpaceOnUse" color-interpolation-filters="sRGB">
<feFlood flood-opacity="0" result="BackgroundImageFix"/>
<feGaussianBlur in="BackgroundImageFix" stdDeviation="9"/>
<feComposite in2="SourceAlpha" operator="in" result="effect1_backgroundBlur_1_868"/>
<feBlend mode="normal" in="SourceGraphic" in2="effect1_backgroundBlur_1_868" result="shape"/>
</filter>
<linearGradient id="paint0_linear_1_868" x1="132.397" y1="123.333" x2="104.305" y2="170.227" gradientUnits="userSpaceOnUse">
<stop stop-color="#10994D"/>
<stop offset="1" stop-color="#00FF79"/>
</linearGradient>
<linearGradient id="paint1_linear_1_868" x1="182.04" y1="102.575" x2="148.042" y2="112.39" gradientUnits="userSpaceOnUse">
<stop stop-color="#10E4E2"/>
<stop offset="1" stop-color="#00FF79"/>
</linearGradient>
<linearGradient id="paint2_linear_1_868" x1="132.397" y1="123.333" x2="104.305" y2="170.227" gradientUnits="userSpaceOnUse">
<stop stop-color="#10994D"/>
<stop offset="1" stop-color="#00FF79"/>
</linearGradient>
<linearGradient id="paint3_linear_1_868" x1="182.04" y1="102.575" x2="148.042" y2="112.39" gradientUnits="userSpaceOnUse">
<stop stop-color="#10E4E2"/>
<stop offset="1" stop-color="#00FF79"/>
</linearGradient>
<linearGradient id="paint4_linear_1_868" x1="105.834" y1="167.416" x2="175.465" y2="98.7442" gradientUnits="userSpaceOnUse">
<stop stop-color="white" stop-opacity="0.2"/>
<stop offset="1" stop-color="white" stop-opacity="0.49"/>
</linearGradient>
<linearGradient id="paint5_linear_1_868" x1="106.928" y1="99.5202" x2="172.603" y2="168.774" gradientUnits="userSpaceOnUse">
<stop stop-color="white"/>
<stop offset="1" stop-color="white" stop-opacity="0"/>
</linearGradient>
</defs>
</svg>
