<svg width="206" height="205" viewBox="0 0 206 205" fill="none" xmlns="http://www.w3.org/2000/svg">
<g id="ring">
<g id="Vector" filter="url(#filter0_f_1_817)">
<path d="M103.131 116.701C111.044 116.701 117.459 110.414 117.459 102.659C117.459 94.9044 111.044 88.6177 103.131 88.6177C95.2178 88.6177 88.8028 94.9044 88.8028 102.659C88.8028 110.414 95.2178 116.701 103.131 116.701Z" fill="url(#paint0_linear_1_817)"/>
</g>
<g id="Group 28">
<path id="Vector_2" d="M103.131 116.701C111.044 116.701 117.459 110.414 117.459 102.659C117.459 94.9044 111.044 88.6177 103.131 88.6177C95.2178 88.6177 88.8028 94.9044 88.8028 102.659C88.8028 110.414 95.2178 116.701 103.131 116.701Z" fill="url(#paint1_linear_1_817)"/>
<g id="Vector_3" filter="url(#filter1_b_1_817)">
<path d="M132 77.3642V54.8277C132 38.3562 118.688 25 102.271 25C85.8547 25 72.543 38.3562 72.543 54.8277V77.3642C72.543 79.1937 71.0631 80.6784 69.2398 80.6784C63.5848 80.6784 59 85.2785 59 90.9524C59 96.6263 63.5848 101.226 69.2398 101.226H135.303C140.958 101.226 145.543 96.6263 145.543 90.9524C145.543 85.2785 140.958 80.6784 135.303 80.6784C133.48 80.6784 132 79.1937 132 77.3642Z" fill="url(#paint2_linear_1_817)"/>
<path d="M131 54.8277V77.3642C131 79.7428 132.924 81.6784 135.303 81.6784C140.403 81.6784 144.543 85.8277 144.543 90.9524C144.543 96.0772 140.403 100.226 135.303 100.226H69.2398C64.1402 100.226 60 96.0772 60 90.9524C60 85.8277 64.1402 81.6784 69.2398 81.6784C71.6186 81.6784 73.543 79.7428 73.543 77.3642V54.8277C73.543 38.9053 86.4101 26 102.271 26C118.133 26 131 38.9053 131 54.8277Z" stroke="url(#paint3_linear_1_817)" stroke-width="2"/>
</g>
</g>
</g>
<defs>
<filter id="filter0_f_1_817" x="0.802826" y="0.617676" width="204.657" height="204.083" filterUnits="userSpaceOnUse" color-interpolation-filters="sRGB">
<feFlood flood-opacity="0" result="BackgroundImageFix"/>
<feBlend mode="normal" in="SourceGraphic" in2="BackgroundImageFix" result="shape"/>
<feGaussianBlur stdDeviation="44" result="effect1_foregroundBlur_1_817"/>
</filter>
<filter id="filter1_b_1_817" x="41" y="7" width="122.543" height="112.227" filterUnits="userSpaceOnUse" color-interpolation-filters="sRGB">
<feFlood flood-opacity="0" result="BackgroundImageFix"/>
<feGaussianBlur in="BackgroundImageFix" stdDeviation="9"/>
<feComposite in2="SourceAlpha" operator="in" result="effect1_backgroundBlur_1_817"/>
<feBlend mode="normal" in="SourceGraphic" in2="effect1_backgroundBlur_1_817" result="shape"/>
</filter>
<linearGradient id="paint0_linear_1_817" x1="88.8028" y1="102.659" x2="117.459" y2="102.659" gradientUnits="userSpaceOnUse">
<stop stop-color="#FFDC4A"/>
<stop offset="1" stop-color="#F37322"/>
</linearGradient>
<linearGradient id="paint1_linear_1_817" x1="88.8028" y1="102.659" x2="117.459" y2="102.659" gradientUnits="userSpaceOnUse">
<stop stop-color="#FFDC4A"/>
<stop offset="1" stop-color="#F37322"/>
</linearGradient>
<linearGradient id="paint2_linear_1_817" x1="63.8858" y1="96.923" x2="130.964" y2="20.7662" gradientUnits="userSpaceOnUse">
<stop stop-color="white" stop-opacity="0.2"/>
<stop offset="1" stop-color="white" stop-opacity="0.49"/>
</linearGradient>
<linearGradient id="paint3_linear_1_817" x1="65.1089" y1="30.9951" x2="127.788" y2="107.084" gradientUnits="userSpaceOnUse">
<stop stop-color="white"/>
<stop offset="1" stop-color="white" stop-opacity="0"/>
</linearGradient>
</defs>
</svg>
